<svg xmlns="http://www.w3.org/2000/svg" viewBox="0 0 1080 660" width="1080" height="660">
  <defs>
    <marker id="arrowA" markerWidth="10" markerHeight="7" refX="9" refY="3.5" orient="auto">
      <polygon points="0 0, 10 3.5, 0 7" fill="#7c3aed"/>
    </marker>
    <marker id="arrowB" markerWidth="10" markerHeight="7" refX="9" refY="3.5" orient="auto">
      <polygon points="0 0, 10 3.5, 0 7" fill="#10b981"/>
    </marker>
    <marker id="arrowC" markerWidth="10" markerHeight="7" refX="9" refY="3.5" orient="auto">
      <polygon points="0 0, 10 3.5, 0 7" fill="#2563eb"/>
    </marker>
    <marker id="arrowE" markerWidth="10" markerHeight="7" refX="9" refY="3.5" orient="auto">
      <polygon points="0 0, 10 3.5, 0 7" fill="#f97316"/>
    </marker>
    <marker id="arrowF" markerWidth="10" markerHeight="7" refX="9" refY="3.5" orient="auto">
      <polygon points="0 0, 10 3.5, 0 7" fill="#7c3aed"/>
    </marker>
    <marker id="arrowG" markerWidth="10" markerHeight="7" refX="9" refY="3.5" orient="auto">
      <polygon points="0 0, 10 3.5, 0 7" fill="#ef4444"/>
    </marker>
    <marker id="arrowH" markerWidth="10" markerHeight="7" refX="9" refY="3.5" orient="auto">
      <polygon points="0 0, 10 3.5, 0 7" fill="#6b7280"/>
    </marker>
    <filter id="shadowSoft" x="-20%" y="-20%" width="140%" height="160%">
      <feDropShadow dx="0" dy="3" stdDeviation="6" flood-color="#0f172a" flood-opacity="0.12"/>
    </filter>
    <filter id="shadowGlass" x="-20%" y="-20%" width="140%" height="160%">
      <feDropShadow dx="0" dy="10" stdDeviation="16" flood-color="#020617" flood-opacity="0.28"/>
    </filter>
    <style>
    text { font-family: 'Helvetica Neue', Helvetica, Arial, 'PingFang SC', 'Microsoft YaHei', 'Microsoft JhengHei', 'SimHei', sans-serif; }
    .title { font-size: 30px; font-weight: 700; fill: #111827; }
    .subtitle { font-size: 14px; font-weight: 500; fill: #6b7280; }
    .section { font-size: 13px; font-weight: 700; fill: #2563eb; letter-spacing: 1.4px; }
    .section-sub { font-size: 12px; font-weight: 500; fill: #94a3b8; }
    .node-title { font-size: 18px; font-weight: 700; fill: #111827; }
    .node-sub { font-size: 12px; font-weight: 500; fill: #6b7280; }
    .node-type { font-size: 12px; font-weight: 700; fill: #9ca3af; letter-spacing: 0.08em; }
    .arrow-label { font-size: 12px; font-weight: 600; fill: #6b7280; }
    .legend { font-size: 12px; font-weight: 500; fill: #6b7280; }
    .footnote { font-size: 12px; font-weight: 500; fill: #94a3b8; }
    </style>
  </defs>
  <rect width="1080.0" height="660.0" fill="#ffffff"/>
  <text x="540.0" y="56" text-anchor="middle" class="title">Jupyter 三层架构：前端 / Kernel / 解释器</text>
  <rect x="30.0" y="90.0" width="1020.0" height="130.0" rx="16.0" fill="#f8fafc" stroke="#dbeafe" stroke-width="1.4" stroke-dasharray="6 5"/>
  <text x="48.0" y="114.0" class="section">前端（FRONTEND）</text>
  <rect x="30.0" y="260.0" width="1020.0" height="130.0" rx="16.0" fill="#f0fdf4" stroke="#bbf7d0" stroke-width="1.4" stroke-dasharray="6 5"/>
  <text x="48.0" y="284.0" class="section">KERNEL（内核，可替换）</text>
  <rect x="30.0" y="430.0" width="1020.0" height="130.0" rx="16.0" fill="#fff7ed" stroke="#fed7aa" stroke-width="1.4" stroke-dasharray="6 5"/>
  <text x="48.0" y="454.0" class="section">INTERPRETER（解释器）</text>
  <path d="M 170.0,192.0 L 170.0,212.4 L 200.0,212.4 L 200.0,302.0" fill="none" stroke="#7c3aed" stroke-width="2.4" marker-end="url(#arrowA)"/>
  <path d="M 390.0,192.0 L 390.0,212.4 L 200.0,212.4 L 200.0,302.0" fill="none" stroke="#7c3aed" stroke-width="2.4" marker-end="url(#arrowA)"/>
  <path d="M 620.0,192.0 L 620.0,212.4 L 200.0,212.4 L 200.0,302.0" fill="none" stroke="#7c3aed" stroke-width="2.4" marker-end="url(#arrowA)"/>
  <path d="M 890.0,192.0 L 890.0,212.4 L 200.0,212.4 L 200.0,302.0" fill="none" stroke="#7c3aed" stroke-width="2.4" marker-end="url(#arrowA)"/>
  <path d="M 200.0,362.0 L 200.0,472.0" fill="none" stroke="#f97316" stroke-width="2.4" marker-end="url(#arrowE)"/>
  <path d="M 470.0,362.0 L 470.0,472.0" fill="none" stroke="#f97316" stroke-width="2.4" marker-end="url(#arrowE)"/>
  <path d="M 710.0,362.0 L 710.0,472.0" fill="none" stroke="#f97316" stroke-width="2.4" marker-end="url(#arrowE)"/>
  <path d="M 940.0,362.0 L 940.0,472.0" fill="none" stroke="#f97316" stroke-width="2.4" marker-end="url(#arrowE)"/>
  <rect x="70.0" y="132.0" width="200.0" height="60.0" rx="10.0" fill="#ffffff" stroke="#2563eb" stroke-width="1.8" filter="url(#shadowSoft)"/>
  <text x="170.0" y="150.0" text-anchor="middle" class="node-type">CLASSIC WEB UI</text>
  <text x="170.0" y="168.0" text-anchor="middle" class="node-title">Jupyter Notebook</text>
  <rect x="290.0" y="132.0" width="200.0" height="60.0" rx="10.0" fill="#ffffff" stroke="#2563eb" stroke-width="1.8" filter="url(#shadowSoft)"/>
  <text x="390.0" y="150.0" text-anchor="middle" class="node-type">MODERN WEB UI</text>
  <text x="390.0" y="168.0" text-anchor="middle" class="node-title">JupyterLab</text>
  <rect x="510.0" y="132.0" width="220.0" height="60.0" rx="10.0" fill="#ffffff" stroke="#2563eb" stroke-width="1.8" filter="url(#shadowSoft)"/>
  <text x="620.0" y="150.0" text-anchor="middle" class="node-type">DESKTOP IDE</text>
  <text x="620.0" y="168.0" text-anchor="middle" class="node-title">VS Code Notebook</text>
  <rect x="750.0" y="132.0" width="280.0" height="60.0" rx="10.0" fill="#eff6ff" stroke="#2563eb" stroke-width="1.8" filter="url(#shadowSoft)"/>
  <text x="890.0" y="150.0" text-anchor="middle" class="node-type">CLOUD-HOSTED</text>
  <text x="890.0" y="168.0" text-anchor="middle" class="node-title">Google Colab</text>
  <rect x="80.0" y="302.0" width="240.0" height="60.0" rx="10.0" fill="#ffffff" stroke="#16a34a" stroke-width="2.0" filter="url(#shadowSoft)"/>
  <rect x="86.0" y="308.0" width="228.0" height="48.0" rx="7.0" fill="none" stroke="#16a34a" stroke-width="1.2" opacity="0.65"/>
  <text x="200.0" y="320.0" text-anchor="middle" class="node-type">DEFAULT PYTHON KERNEL</text>
  <text x="200.0" y="338.0" text-anchor="middle" class="node-title">IPython</text>
  <text x="200.0" y="360.0" text-anchor="middle" class="node-sub">Magic / shell / 富文本</text>
  <rect x="360.0" y="302.0" width="220.0" height="60.0" rx="10.0" fill="#ffffff" stroke="#16a34a" stroke-width="1.8" filter="url(#shadowSoft)"/>
  <text x="470.0" y="320.0" text-anchor="middle" class="node-type">JULIA KERNEL</text>
  <text x="470.0" y="338.0" text-anchor="middle" class="node-title">IJulia</text>
  <rect x="600.0" y="302.0" width="220.0" height="60.0" rx="10.0" fill="#ffffff" stroke="#16a34a" stroke-width="1.8" filter="url(#shadowSoft)"/>
  <text x="710.0" y="320.0" text-anchor="middle" class="node-type">R KERNEL</text>
  <text x="710.0" y="338.0" text-anchor="middle" class="node-title">IRkernel</text>
  <rect x="840.0" y="302.0" width="200.0" height="60.0" rx="10.0" fill="#ffffff" stroke="#bbf7d0" stroke-width="1.8" filter="url(#shadowSoft)"/>
  <text x="940.0" y="320.0" text-anchor="middle" class="node-type">100+ KERNELS</text>
  <text x="940.0" y="338.0" text-anchor="middle" class="node-title">...</text>
  <text x="940.0" y="360.0" text-anchor="middle" class="node-sub">C++ / Scala / Go</text>
  <rect x="80.0" y="472.0" width="240.0" height="60.0" rx="10.0" fill="#ffffff" stroke="#f97316" stroke-width="1.8" filter="url(#shadowSoft)"/>
  <text x="200.0" y="490.0" text-anchor="middle" class="node-type">CPython 3.x</text>
  <text x="200.0" y="508.0" text-anchor="middle" class="node-title">Python</text>
  <rect x="360.0" y="472.0" width="220.0" height="60.0" rx="10.0" fill="#ffffff" stroke="#f97316" stroke-width="1.8" filter="url(#shadowSoft)"/>
  <text x="470.0" y="490.0" text-anchor="middle" class="node-type">Julia 1.x</text>
  <text x="470.0" y="508.0" text-anchor="middle" class="node-title">Julia</text>
  <rect x="600.0" y="472.0" width="220.0" height="60.0" rx="10.0" fill="#ffffff" stroke="#f97316" stroke-width="1.8" filter="url(#shadowSoft)"/>
  <text x="710.0" y="490.0" text-anchor="middle" class="node-type">R runtime</text>
  <text x="710.0" y="508.0" text-anchor="middle" class="node-title">R</text>
  <rect x="840.0" y="472.0" width="200.0" height="60.0" rx="10.0" fill="#ffffff" stroke="#fed7aa" stroke-width="1.8" filter="url(#shadowSoft)"/>
  <text x="940.0" y="490.0" text-anchor="middle" class="node-type">对应语言进程</text>
  <text x="940.0" y="508.0" text-anchor="middle" class="node-title">other...</text>
  <rect x="182.0" y="243.2" width="36" height="20" rx="6" fill="#ffffff" opacity="0.94"/>
  <text x="200.0" y="257.2" text-anchor="middle" class="arrow-label">ZMQ</text>
  <rect x="161.0" y="403.0" width="42" height="20" rx="6" fill="#ffffff" opacity="0.94"/>
  <text x="182.0" y="417.0" text-anchor="middle" class="arrow-label">exec</text>
  <line x1="42.0" y1="605.0" x2="72.0" y2="605.0" stroke="#7c3aed" stroke-width="2.4" marker-end="url(#arrowA)"/>
  <text x="82.0" y="609.0" class="legend">前端 ↔ Kernel：ZMQ 消息</text>
  <line x1="42.0" y1="627.0" x2="72.0" y2="627.0" stroke="#f97316" stroke-width="2.4" marker-end="url(#arrowE)"/>
  <text x="82.0" y="631.0" class="legend">Kernel ↔ Interpreter：直接调用本语言运行时</text>
</svg>