<svg xmlns="http://www.w3.org/2000/svg" viewBox="-80 14 920 528" width="920" height="528">
  <defs>
    <marker id="arrowA" markerWidth="10" markerHeight="7" refX="9" refY="3.5" orient="auto">
      <polygon points="0 0, 10 3.5, 0 7" fill="#7c3aed"/>
    </marker>
    <marker id="arrowB" markerWidth="10" markerHeight="7" refX="9" refY="3.5" orient="auto">
      <polygon points="0 0, 10 3.5, 0 7" fill="#10b981"/>
    </marker>
    <marker id="arrowC" markerWidth="10" markerHeight="7" refX="9" refY="3.5" orient="auto">
      <polygon points="0 0, 10 3.5, 0 7" fill="#2563eb"/>
    </marker>
    <marker id="arrowE" markerWidth="10" markerHeight="7" refX="9" refY="3.5" orient="auto">
      <polygon points="0 0, 10 3.5, 0 7" fill="#f97316"/>
    </marker>
    <marker id="arrowF" markerWidth="10" markerHeight="7" refX="9" refY="3.5" orient="auto">
      <polygon points="0 0, 10 3.5, 0 7" fill="#7c3aed"/>
    </marker>
    <marker id="arrowG" markerWidth="10" markerHeight="7" refX="9" refY="3.5" orient="auto">
      <polygon points="0 0, 10 3.5, 0 7" fill="#ef4444"/>
    </marker>
    <marker id="arrowH" markerWidth="10" markerHeight="7" refX="9" refY="3.5" orient="auto">
      <polygon points="0 0, 10 3.5, 0 7" fill="#6b7280"/>
    </marker>
    <filter id="shadowSoft" x="-20%" y="-20%" width="140%" height="160%">
      <feDropShadow dx="0" dy="3" stdDeviation="6" flood-color="#0f172a" flood-opacity="0.12"/>
    </filter>
    <filter id="shadowGlass" x="-20%" y="-20%" width="140%" height="160%">
      <feDropShadow dx="0" dy="10" stdDeviation="16" flood-color="#020617" flood-opacity="0.28"/>
    </filter>
    <style>
    text { font-family: 'Noto Sans CJK SC', 'Helvetica Neue', Helvetica, Arial, 'PingFang SC', 'Microsoft YaHei', 'Microsoft JhengHei', 'SimHei', sans-serif; }
    .title { font-size: 23px; font-weight: 700; fill: #374151; }
    .subtitle { font-size: 15px; font-weight: 500; fill: #374151; }
    .section { font-size: 15px; font-weight: 700; fill: #2563eb; letter-spacing: 1.4px; }
    .section-sub { font-size: 14px; font-weight: 500; fill: #334155; }
    .node-title { font-size: 19px; font-weight: 700; fill: #374151; }
    .node-sub { font-size: 14px; font-weight: 500; fill: #374151; }
    .node-type { font-size: 14px; font-weight: 700; fill: #374151; letter-spacing: 0.06em; }
    .arrow-label { font-size: 14px; font-weight: 600; fill: #374151; }
    .legend { font-size: 14px; font-weight: 500; fill: #374151; }
    .footnote { font-size: 14px; font-weight: 500; fill: #334155; }
    </style>
  </defs>
  <rect x="-80" y="14" width="920" height="528" fill="#ffffff"/>
  <text x="380.0" y="44" text-anchor="middle" class="title">Python / IPython / Jupyter / Colab 的层次关系</text>
  <path d="M 380.0,156.0 L 380.0,202.0" fill="none" stroke="#7c3aed" stroke-width="2.4" marker-end="url(#arrowA)"/>
  <path d="M 380.0,278.0 L 380.0,324.0" fill="none" stroke="#7c3aed" stroke-width="2.4" marker-end="url(#arrowA)"/>
  <path d="M 380.0,400.0 L 380.0,446.0" fill="none" stroke="#7c3aed" stroke-width="2.4" marker-end="url(#arrowA)"/>
  <rect x="230.0" y="80.0" width="300.0" height="76.0" rx="10.0" fill="#eff6ff" stroke="#2563eb" stroke-width="1.8" filter="url(#shadowSoft)"/>
  <text x="380.0" y="104.0" text-anchor="middle" class="node-type">LANGUAGE &amp; INTERPRETER</text>
  <text x="380.0" y="126.0" text-anchor="middle" class="node-title">Python</text>
  <text x="380.0" y="146.0" text-anchor="middle" class="node-sub">解释器本体，提供语法和标准库</text>
  <rect x="230.0" y="202.0" width="300.0" height="76.0" rx="10.0" fill="#f0fdf4" stroke="#16a34a" stroke-width="1.8" filter="url(#shadowSoft)"/>
  <text x="380.0" y="226.0" text-anchor="middle" class="node-type">INTERACTIVE SHELL / KERNEL</text>
  <text x="380.0" y="248.0" text-anchor="middle" class="node-title">IPython</text>
  <text x="380.0" y="268.0" text-anchor="middle" class="node-sub">Magic 命令、! shell、补全、富文本</text>
  <rect x="230.0" y="324.0" width="300.0" height="76.0" rx="10.0" fill="#faf5ff" stroke="#9333ea" stroke-width="1.8" filter="url(#shadowSoft)"/>
  <text x="380.0" y="348.0" text-anchor="middle" class="node-type">BROWSER FRONTEND</text>
  <text x="380.0" y="370.0" text-anchor="middle" class="node-title">Jupyter Notebook</text>
  <text x="380.0" y="390.0" text-anchor="middle" class="node-sub">.ipynb 文档：cell + markdown + 输出</text>
  <rect x="230.0" y="446.0" width="300.0" height="76.0" rx="10.0" fill="#fff7ed" stroke="#f97316" stroke-width="1.8" filter="url(#shadowSoft)"/>
  <text x="380.0" y="470.0" text-anchor="middle" class="node-type">CLOUD-HOSTED JUPYTER</text>
  <text x="380.0" y="492.0" text-anchor="middle" class="node-title">Google Colab</text>
  <text x="380.0" y="512.0" text-anchor="middle" class="node-sub">免费 GPU/TPU + 浏览器即用</text>
  <rect x="316.0" y="168.0" width="92" height="22" rx="6" fill="#ffffff" opacity="0.94"/>
  <text x="362.0" y="183.5" text-anchor="middle" class="arrow-label">在其之上构建</text>
  <rect x="309.0" y="290.0" width="106" height="22" rx="6" fill="#ffffff" opacity="0.94"/>
  <text x="362.0" y="305.5" text-anchor="middle" class="arrow-label">作为内核被调用</text>
  <rect x="323.0" y="412.0" width="78" height="22" rx="6" fill="#ffffff" opacity="0.94"/>
  <text x="362.0" y="427.5" text-anchor="middle" class="arrow-label">部署到云端</text>
</svg>
