<svg xmlns="http://www.w3.org/2000/svg" viewBox="0 0 1280 770">
  <rect width="100%" height="100%" fill="#ffffff"/>

  <defs>
    <marker id="aBlue" markerWidth="11" markerHeight="8" refX="9" refY="4" orient="auto">
      <polygon points="0 0, 11 4, 0 8" fill="#2563eb"/></marker>
    <marker id="aGray" markerWidth="10" markerHeight="7" refX="8" refY="3.5" orient="auto">
      <polygon points="0 0, 10 3.5, 0 7" fill="#94a3b8"/></marker>
    <marker id="aOrange" markerWidth="11" markerHeight="8" refX="9" refY="4" orient="auto">
      <polygon points="0 0, 11 4, 0 8" fill="#ea580c"/></marker>
    <marker id="aGreen" markerWidth="11" markerHeight="8" refX="9" refY="4" orient="auto">
      <polygon points="0 0, 11 4, 0 8" fill="#059669"/></marker>
    <marker id="aRed" markerWidth="11" markerHeight="8" refX="9" refY="4" orient="auto">
      <polygon points="0 0, 11 4, 0 8" fill="#dc2626"/></marker>
    <marker id="aPurple" markerWidth="11" markerHeight="8" refX="9" refY="4" orient="auto">
      <polygon points="0 0, 11 4, 0 8" fill="#7c3aed"/></marker>
    <marker id="aTeal" markerWidth="11" markerHeight="8" refX="9" refY="4" orient="auto">
      <polygon points="0 0, 11 4, 0 8" fill="#0d9488"/></marker>
  </defs>

  <style>
    text { font-family: 'Noto Sans CJK SC', -apple-system, BlinkMacSystemFont, 'Segoe UI', 'PingFang SC', 'Hiragino Sans GB', 'Microsoft YaHei', 'WenQuanYi Zen Hei', sans-serif; }
    .title  { font-size: 24px; font-weight: 700; fill: #374151; }
    .lbl    { font-size: 16px; font-weight: 600; fill: #374151; }
    .sub    { font-size: 14px; fill: #334155; }
    .mono   { font-size: 15px; font-family: 'Noto Sans Mono CJK SC','SFMono-Regular','Consolas','Liberation Mono',monospace; fill: #374151; }
    .monob  { font-size: 17px; font-weight: 700; font-family: 'Noto Sans Mono CJK SC','SFMono-Regular','Consolas','Liberation Mono',monospace; fill: #374151; }
    .monos  { font-size: 13px; font-family: 'Noto Sans Mono CJK SC','SFMono-Regular','Consolas','Liberation Mono',monospace; fill: #374151; }
    .small  { font-size: 13px; fill: #334155; }
    .cap    { font-size: 14px; fill: #334155; }
    .tag    { font-size: 13px; font-weight: 600; }
  </style>
<text x="640.0" y="44" text-anchor="middle" class="title">Causal Mask：softmax 前把上三角（未来）置 -inf，权重矩阵变下三角</text>
<text x="306.0" y="154" text-anchor="middle" class="lbl">缩放后分数 + causal mask</text>
<text x="306.0" y="174" text-anchor="middle" class="small">上三角(未来 j&gt;i)填 -inf，下三角保留</text>
<text x="189.0" y="194" text-anchor="middle" class="monos" fill="#334155">k1</text>
<text x="267.0" y="194" text-anchor="middle" class="monos" fill="#334155">k2</text>
<text x="345.0" y="194" text-anchor="middle" class="monos" fill="#334155">k3</text>
<text x="423.0" y="194" text-anchor="middle" class="monos" fill="#334155">k4</text>
<text x="136" y="243.0" text-anchor="end" class="monos" fill="#334155">q1</text>
<rect x="150" y="200" width="74" height="74" rx="6" fill="#dbeafe" stroke="#2563eb" stroke-width="1.6"/>
<text x="187.0" y="242.0" text-anchor="middle" class="monos">s</text>
<rect x="228" y="200" width="74" height="74" rx="6" fill="#fee2e2" stroke="#dc2626" stroke-width="1.6"/>
<text x="265.0" y="242.0" text-anchor="middle" class="monos">-inf</text>
<rect x="306" y="200" width="74" height="74" rx="6" fill="#fee2e2" stroke="#dc2626" stroke-width="1.6"/>
<text x="343.0" y="242.0" text-anchor="middle" class="monos">-inf</text>
<rect x="384" y="200" width="74" height="74" rx="6" fill="#fee2e2" stroke="#dc2626" stroke-width="1.6"/>
<text x="421.0" y="242.0" text-anchor="middle" class="monos">-inf</text>
<text x="136" y="321.0" text-anchor="end" class="monos" fill="#334155">q2</text>
<rect x="150" y="278" width="74" height="74" rx="6" fill="#dbeafe" stroke="#2563eb" stroke-width="1.6"/>
<text x="187.0" y="320.0" text-anchor="middle" class="monos">s</text>
<rect x="228" y="278" width="74" height="74" rx="6" fill="#dbeafe" stroke="#2563eb" stroke-width="1.6"/>
<text x="265.0" y="320.0" text-anchor="middle" class="monos">s</text>
<rect x="306" y="278" width="74" height="74" rx="6" fill="#fee2e2" stroke="#dc2626" stroke-width="1.6"/>
<text x="343.0" y="320.0" text-anchor="middle" class="monos">-inf</text>
<rect x="384" y="278" width="74" height="74" rx="6" fill="#fee2e2" stroke="#dc2626" stroke-width="1.6"/>
<text x="421.0" y="320.0" text-anchor="middle" class="monos">-inf</text>
<text x="136" y="399.0" text-anchor="end" class="monos" fill="#334155">q3</text>
<rect x="150" y="356" width="74" height="74" rx="6" fill="#dbeafe" stroke="#2563eb" stroke-width="1.6"/>
<text x="187.0" y="398.0" text-anchor="middle" class="monos">s</text>
<rect x="228" y="356" width="74" height="74" rx="6" fill="#dbeafe" stroke="#2563eb" stroke-width="1.6"/>
<text x="265.0" y="398.0" text-anchor="middle" class="monos">s</text>
<rect x="306" y="356" width="74" height="74" rx="6" fill="#dbeafe" stroke="#2563eb" stroke-width="1.6"/>
<text x="343.0" y="398.0" text-anchor="middle" class="monos">s</text>
<rect x="384" y="356" width="74" height="74" rx="6" fill="#fee2e2" stroke="#dc2626" stroke-width="1.6"/>
<text x="421.0" y="398.0" text-anchor="middle" class="monos">-inf</text>
<text x="136" y="477.0" text-anchor="end" class="monos" fill="#334155">q4</text>
<rect x="150" y="434" width="74" height="74" rx="6" fill="#dbeafe" stroke="#2563eb" stroke-width="1.6"/>
<text x="187.0" y="476.0" text-anchor="middle" class="monos">s</text>
<rect x="228" y="434" width="74" height="74" rx="6" fill="#dbeafe" stroke="#2563eb" stroke-width="1.6"/>
<text x="265.0" y="476.0" text-anchor="middle" class="monos">s</text>
<rect x="306" y="434" width="74" height="74" rx="6" fill="#dbeafe" stroke="#2563eb" stroke-width="1.6"/>
<text x="343.0" y="476.0" text-anchor="middle" class="monos">s</text>
<rect x="384" y="434" width="74" height="74" rx="6" fill="#dbeafe" stroke="#2563eb" stroke-width="1.6"/>
<text x="421.0" y="476.0" text-anchor="middle" class="monos">s</text>
<line x1="522" y1="356.0" x2="632" y2="356.0" stroke="#94a3b8" stroke-width="2.4" marker-end="url(#aGray)"/>
<text x="577" y="342.0" text-anchor="middle" class="small">逐行</text>
<text x="577" y="386.0" text-anchor="middle" class="small">softmax</text>
<text x="828.0" y="154" text-anchor="middle" class="lbl">注意力权重 A（softmax 后）</text>
<text x="828.0" y="174" text-anchor="middle" class="small">上三角=0（看不到未来），每行和=1</text>
<text x="711.0" y="194" text-anchor="middle" class="monos" fill="#334155">k1</text>
<text x="789.0" y="194" text-anchor="middle" class="monos" fill="#334155">k2</text>
<text x="867.0" y="194" text-anchor="middle" class="monos" fill="#334155">k3</text>
<text x="945.0" y="194" text-anchor="middle" class="monos" fill="#334155">k4</text>
<text x="658" y="243.0" text-anchor="end" class="monos" fill="#334155">q1</text>
<rect x="672" y="200" width="74" height="74" rx="6" fill="#dcfce7" stroke="#059669" stroke-width="1.6"/>
<text x="709.0" y="242.0" text-anchor="middle" class="monos">w</text>
<rect x="750" y="200" width="74" height="74" rx="6" fill="#f3f4f6" stroke="#94a3b8" stroke-width="1.6"/>
<text x="787.0" y="242.0" text-anchor="middle" class="monos">0</text>
<rect x="828" y="200" width="74" height="74" rx="6" fill="#f3f4f6" stroke="#94a3b8" stroke-width="1.6"/>
<text x="865.0" y="242.0" text-anchor="middle" class="monos">0</text>
<rect x="906" y="200" width="74" height="74" rx="6" fill="#f3f4f6" stroke="#94a3b8" stroke-width="1.6"/>
<text x="943.0" y="242.0" text-anchor="middle" class="monos">0</text>
<text x="658" y="321.0" text-anchor="end" class="monos" fill="#334155">q2</text>
<rect x="672" y="278" width="74" height="74" rx="6" fill="#dcfce7" stroke="#059669" stroke-width="1.6"/>
<text x="709.0" y="320.0" text-anchor="middle" class="monos">w</text>
<rect x="750" y="278" width="74" height="74" rx="6" fill="#dcfce7" stroke="#059669" stroke-width="1.6"/>
<text x="787.0" y="320.0" text-anchor="middle" class="monos">w</text>
<rect x="828" y="278" width="74" height="74" rx="6" fill="#f3f4f6" stroke="#94a3b8" stroke-width="1.6"/>
<text x="865.0" y="320.0" text-anchor="middle" class="monos">0</text>
<rect x="906" y="278" width="74" height="74" rx="6" fill="#f3f4f6" stroke="#94a3b8" stroke-width="1.6"/>
<text x="943.0" y="320.0" text-anchor="middle" class="monos">0</text>
<text x="658" y="399.0" text-anchor="end" class="monos" fill="#334155">q3</text>
<rect x="672" y="356" width="74" height="74" rx="6" fill="#dcfce7" stroke="#059669" stroke-width="1.6"/>
<text x="709.0" y="398.0" text-anchor="middle" class="monos">w</text>
<rect x="750" y="356" width="74" height="74" rx="6" fill="#dcfce7" stroke="#059669" stroke-width="1.6"/>
<text x="787.0" y="398.0" text-anchor="middle" class="monos">w</text>
<rect x="828" y="356" width="74" height="74" rx="6" fill="#dcfce7" stroke="#059669" stroke-width="1.6"/>
<text x="865.0" y="398.0" text-anchor="middle" class="monos">w</text>
<rect x="906" y="356" width="74" height="74" rx="6" fill="#f3f4f6" stroke="#94a3b8" stroke-width="1.6"/>
<text x="943.0" y="398.0" text-anchor="middle" class="monos">0</text>
<text x="658" y="477.0" text-anchor="end" class="monos" fill="#334155">q4</text>
<rect x="672" y="434" width="74" height="74" rx="6" fill="#dcfce7" stroke="#059669" stroke-width="1.6"/>
<text x="709.0" y="476.0" text-anchor="middle" class="monos">w</text>
<rect x="750" y="434" width="74" height="74" rx="6" fill="#dcfce7" stroke="#059669" stroke-width="1.6"/>
<text x="787.0" y="476.0" text-anchor="middle" class="monos">w</text>
<rect x="828" y="434" width="74" height="74" rx="6" fill="#dcfce7" stroke="#059669" stroke-width="1.6"/>
<text x="865.0" y="476.0" text-anchor="middle" class="monos">w</text>
<rect x="906" y="434" width="74" height="74" rx="6" fill="#dcfce7" stroke="#059669" stroke-width="1.6"/>
<text x="943.0" y="476.0" text-anchor="middle" class="monos">w</text>
<rect x="260" y="572" width="22" height="20" rx="5" fill="#dbeafe" stroke="#2563eb" stroke-width="1.4"/>
<text x="292" y="587" class="cap">保留的分数 / 有效 key（j ≤ i，能看见）</text>
<rect x="260" y="602" width="22" height="20" rx="5" fill="#fee2e2" stroke="#dc2626" stroke-width="1.4"/>
<text x="292" y="617" class="cap">被 mask 的未来位置（j &gt; i，填 -inf）</text>
<rect x="260" y="632" width="22" height="20" rx="5" fill="#dcfce7" stroke="#059669" stroke-width="1.4"/>
<text x="292" y="647" class="cap">softmax 后非零权重（注意力真正落点）</text>
<rect x="260" y="662" width="22" height="20" rx="5" fill="#f3f4f6" stroke="#94a3b8" stroke-width="1.4"/>
<text x="292" y="677" class="cap">softmax 后权重 = 0（exp(-inf)=0）</text>
<text x="640.0" y="752" text-anchor="middle" class="cap">每个 query 只能注意到「自己及之前」的 key —— 这正是自回归语言模型「预测下一个 token 时不许偷看答案」的实现。</text>
</svg>
